<svg xmlns="http://www.w3.org/2000/svg" viewBox="0 0 1520 43.70539">
<defs>
    <style>.cls-1{fill:none;stroke:#ffffff;stroke-miterlimit:10;fill-rule:evenodd;}</style>
</defs>
<title>Asset 1</title>
<g id="Layer_2" data-name="Layer 2">
<g id="Layer_1-2" data-name="Layer 1">
<path id="line" stroke-dasharray="10 20" class="cls-1" d="M.14782,14.553c16.98325-5.2558,41.99341-10.17334,70-4,27.21823,5.99957,30.1578,16.499,55,19,32.31015,3.2528,39.07773-13.32618,74-10,23.96429,2.28247,23.243,10.32428,47,12,31.8082,2.24365,35.21838-12.02314,66-12,36.27029.02728,45.6503,19.84613,73,12,16.46286-4.7229,15.914-12.72144,34-18,19.6394-5.73194,32.60394.10467,58,5,46.73486,9.00854,45.68609-2.49628,89,6,42.20654,8.279,45.22461,19.59985,72,17,8.66607-.8415,24.444-6.561,56-18,38.07373-13.8017,44.25238-17.82495,57-16,20.99273,3.00531,22.34491,16.50848,44,25,31.40387,12.31421,43.16327-10.35724,89-9,50.09912,1.48339,66.29992,29.463,94,16,18.81531-9.14472,18.852-25.70484,40-31,15.732-3.93909,19.60608,4.25006,46,6,29.21362,1.93689,32.84949-7.5398,60-6,29.87158,1.69415,29.08252,13.37042,54,14,34.76.87823,40.23657-21.74475,72-20,29.86413,1.64038,33.26733,22.09155,60,20,26.79138-2.09613,31.16711-23.24707,55-22,22.5415,1.1795,24.46155,20.40576,49,23,20.8894,2.20843,28.0039-10.82569,55-15,21.592-3.33875,40.3717,1.39178,53,6"/></g></g></svg>